<svg xmlns="http://www.w3.org/2000/svg" viewBox="0 0 240 160" role="img" aria-label="Card matching exercise">
  <rect width="240" height="160" rx="28" fill="#fff7ed"/>
  <rect x="24" y="26" width="56" height="72" rx="14" fill="#ef4444"/>
  <rect x="92" y="26" width="56" height="72" rx="14" fill="#ffffff" stroke="#f59e0b" stroke-width="5"/>
  <rect x="160" y="26" width="56" height="72" rx="14" fill="#ef4444"/>
  <rect x="44" y="38" width="16" height="48" rx="8" fill="#ffffff" opacity=".35"/>
  <rect x="180" y="38" width="16" height="48" rx="8" fill="#ffffff" opacity=".35"/>
  <circle cx="120" cy="62" r="18" fill="#f97316"/>
  <path d="M120 38c12 8 19 19 19 31a19 19 0 0 1-38 0c0-12 7-23 19-31Z" fill="#facc15"/>
  <rect x="54" y="112" width="132" height="18" rx="9" fill="#fecaca"/>
  <circle cx="84" cy="121" r="8" fill="#ef4444"/>
  <circle cx="120" cy="121" r="8" fill="#f97316"/>
  <circle cx="156" cy="121" r="8" fill="#22c55e"/>
</svg>
