<svg xmlns="http://www.w3.org/2000/svg" viewBox="0 0 640 360" role="img" aria-labelledby="title desc">
  <title id="title">Göz Egzersizleri Kolonlar</title>
  <desc id="desc">Kolonlar halinde dizilmiş farklı kelimeleri temsil eden kartlar</desc>
  <defs>
    <linearGradient id="background" x1="0" y1="0" x2="1" y2="1">
      <stop offset="0" stop-color="#fff7ed"/>
      <stop offset="1" stop-color="#fee2e2"/>
    </linearGradient>
  </defs>
  <rect width="640" height="360" rx="36" fill="url(#background)"/>
  <g fill="#ffffff" stroke="#fecaca" stroke-width="3">
    <rect x="70" y="52" width="130" height="54" rx="15"/>
    <rect x="255" y="52" width="130" height="54" rx="15"/>
    <rect x="440" y="52" width="130" height="54" rx="15"/>
    <rect x="70" y="128" width="130" height="54" rx="15"/>
    <rect x="255" y="128" width="130" height="54" rx="15"/>
    <rect x="440" y="128" width="130" height="54" rx="15"/>
    <rect x="70" y="204" width="130" height="54" rx="15"/>
    <rect x="255" y="204" width="130" height="54" rx="15"/>
    <rect x="440" y="204" width="130" height="54" rx="15"/>
  </g>
  <rect x="255" y="128" width="130" height="54" rx="15" fill="#fff1f2" stroke="#dc2626" stroke-width="5"/>
  <g fill="#64748b">
    <rect x="96" y="76" width="78" height="8" rx="4"/>
    <rect x="280" y="76" width="80" height="8" rx="4"/>
    <rect x="465" y="76" width="80" height="8" rx="4"/>
    <rect x="95" y="152" width="80" height="8" rx="4"/>
    <rect x="280" y="152" width="80" height="8" rx="4" fill="#b91c1c"/>
    <rect x="466" y="152" width="78" height="8" rx="4"/>
    <rect x="95" y="228" width="80" height="8" rx="4"/>
    <rect x="280" y="228" width="80" height="8" rx="4"/>
    <rect x="465" y="228" width="80" height="8" rx="4"/>
  </g>
  <path d="M320 278v26m0 0-12-12m12 12 12-12" fill="none" stroke="#dc2626" stroke-width="6" stroke-linecap="round" stroke-linejoin="round"/>
</svg>
