<svg xmlns="http://www.w3.org/2000/svg" viewBox="0 0 128 128"><path d="M43 69 28 54c-5-5-5-12 0-16s11-3 16 2l17 17" fill="#FDBA74" stroke="#9A3412" stroke-width="5" stroke-linecap="round"/><path d="M72 75 51 30c-3-7 0-13 6-15s11 1 14 8l20 42" fill="#FED7AA" stroke="#9A3412" stroke-width="5" stroke-linecap="round"/><path d="M48 75 34 62M86 31l15-11M95 47l20-1M85 13l3-19" stroke="#3B82F6" stroke-width="5" stroke-linecap="round"/><path d="M57 85c15 22 40 17 48-4 5-14-3-28-16-34L69 38" fill="#FDBA74" stroke="#9A3412" stroke-width="5" stroke-linecap="round"/></svg>