<svg xmlns="http://www.w3.org/2000/svg" viewBox="0 0 128 128"><circle cx="64" cy="64" r="48" fill="#FDE68A" stroke="#F59E0B" stroke-width="5"/><path d="M47 58c-11-8-18-13-18-23 0-7 5-12 12-12 4 0 8 2 10 6 2-4 6-6 10-6 7 0 12 5 12 12 0 10-7 15-26 23Z" fill="#EF4444" transform="scale(.55) translate(30 38)"/><path d="M47 58c-11-8-18-13-18-23 0-7 5-12 12-12 4 0 8 2 10 6 2-4 6-6 10-6 7 0 12 5 12 12 0 10-7 15-26 23Z" fill="#EF4444" transform="scale(.55) translate(92 38)"/><path d="M45 83c13 12 25 12 38 0" fill="none" stroke="#7C2D12" stroke-width="7" stroke-linecap="round"/></svg>